<?xml version="1.0" encoding="UTF-8" standalone="no" ?>
<!DOCTYPE svg PUBLIC "-//W3C//DTD SVG 1.1//EN" "http://www.w3.org/Graphics/SVG/1.1/DTD/svg11.dtd">
<svg xmlns="http://www.w3.org/2000/svg" version="1.1"
     width="440.81755493164064" height="213.42000000000002" xml:space="preserve">
<desc>Created with Fabric.js 1.6.0-rc.1</desc>
  <defs></defs>
  <g
    style="stroke: none; stroke-width: 1; stroke-dasharray: none; stroke-linecap: butt; stroke-linejoin: miter; stroke-miterlimit: 10; fill: none; fill-rule: nonzero; opacity: 1;"
    transform="translate(10 10) scale(0.38 0.38)">
  <circle cx="254" cy="254" r="254"
          style="stroke: none; stroke-width: 1; stroke-dasharray: none; stroke-linecap: butt; stroke-linejoin: miter; stroke-miterlimit: 10; fill: #324A5E; fill-rule: nonzero; opacity: 1;"
          transform="  matrix(1 0 0 1 0 0) "/>
    <circle cx="253.9" cy="254" r="109.4"
            style="stroke: none; stroke-width: 1; stroke-dasharray: none; stroke-linecap: butt; stroke-linejoin: miter; stroke-miterlimit: 10; fill: #54C0EB; fill-rule: nonzero; opacity: 1;"
            transform="  matrix(1 0 0 1 0 0) "/>
    <path
      d="M 354 236.1 c -0.2 -7.2 -0.5 -14.4 -0.7 -21.6 c -0.1 -3.3 -0.5 -7.1 -3.3 -8.8 c -1.1 -0.7 -2.5 -1 -3.5 -1.8 c -1.3 -1.1 -1.6 -3 -1.9 -4.7 c -0.4 -2.7 -0.8 -5.5 -1.2 -8.2 c -10.9 -15.5 -25.8 -28 -43.2 -36.1 c -1.7 2.7 -5.3 4.2 -8.1 2.9 c 0.3 6 -6.2 9.6 -11.8 11.9 c -2.8 1.1 -5.9 2.3 -8.8 1.4 c -2.1 -0.6 -3.7 -2.1 -5.6 -3.3 c -6.4 -4.1 -15.4 -3.6 -21.4 1.1 c -2.1 1.7 -4 4.2 -3.5 6.9 c 0.4 2.7 4.3 4.5 6 2.4 c 0.7 -0.9 0.8 -2.1 1.3 -3.2 c 1.2 -2.6 4.8 -3.6 7.1 -2.1 c 1.3 3.3 -1.3 7.1 -4.6 8.4 c -3.3 1.3 -7 0.8 -10.4 0.2 c -3.5 -0.6 -7.1 -1.3 -10.5 -0.3 c -1.1 -3.1 -0.8 -6.7 0.7 -9.6 c -1.8 0.2 -3.7 0.5 -5.1 1.6 c -1.4 1.1 -2.2 3.3 -1.1 4.8 c 0.5 0.7 1.4 1.1 1.8 1.9 c 1.3 2.2 -1.6 4.4 -4 5.3 c -5.2 2 -10.3 4 -15.5 5.9 c 2.9 2.8 6.5 5 10.3 6.4 c 2.2 0.8 4.8 1.3 6.9 0.1 c 1.3 -0.7 2.2 -1.9 3.5 -2.6 c 3.7 -2 8 1.3 11.1 4.1 c 3.2 2.8 8.4 5.2 11.2 2.1 c 0.7 -0.7 1.1 -1.7 1.8 -2.5 c 3.1 -3.4 8.8 -0.4 13.2 -1.7 c 1.1 2.7 -1.9 5.4 -4.7 5.8 c -2.8 0.5 -5.8 -0.3 -8.6 0.5 c -0.5 0.1 -1 0.3 -1.3 0.8 c -0.7 1 0.2 2.3 1.1 3.1 c 2.4 2.1 5.3 3.5 8.5 4.1 c -0.5 3.7 -5.3 4.7 -9.1 4.8 c -3.9 0.1 -7.9 0.2 -11.9 0.3 c -4.5 0.1 -10.4 -0.8 -11.1 -5.3 c -0.3 -2 0.6 -4.4 -0.8 -5.9 c -0.6 -0.7 -1.6 -1 -2.5 -1.2 c -5.1 -1.4 -10.4 -2.8 -15.6 -1.7 c -3.1 0.6 -5.9 2.1 -8.6 3.6 c -7.6 4.1 -15.6 9.4 -17.8 17.7 c -2 7.5 1.5 15.3 4.8 22.3 c 1.3 2.7 2.8 5.6 5.6 6.8 c 4.4 1.8 10.2 -1.5 13.9 1.6 c 2.9 2.5 2 6.9 1.5 10.7 c -0.8 5.8 -0.3 11.8 1.6 17.3 c 0.6 1.7 1.4 3.4 2.9 4.2 c 1.1 0.5 2.3 0.5 3.4 1 c 3.5 1.5 3.5 6.4 3.3 10.2 c -0.3 5 0.1 10.1 1.2 15.1 c 0.4 2 1.1 4.2 2.8 5.4 c 1.4 1 3.2 1.1 5 1.2 c 6.6 0.3 14.4 0.1 18.1 -5.4 c 2.7 -4 2.2 -9.8 5.5 -13.4 c 1.6 -1.7 3.9 -2.7 5.5 -4.5 c 3.7 -4.3 1.5 -10.9 2.2 -16.6 c 0.7 -4.9 4 -9.4 8.5 -11.5 c 3.1 -1.4 6.5 -1.8 9.4 -3.6 c 2.8 -1.8 4.6 -6 2.4 -8.5 c -5.8 1.4 -12 -1.3 -16.3 -5.5 c -4.3 -4.2 -7 -9.7 -9.5 -15.1 c -0.8 -1.7 -1.6 -3.5 -1.5 -5.4 s 1.5 -3.8 3.4 -3.8 c 1.8 0 3.3 1.7 3.7 3.5 c 0.4 1.8 0.1 3.6 0.1 5.5 c -0.1 9 8.2 17.1 17.1 16.9 c 9 -0.2 16.9 -8.7 16.4 -17.6 c -3.2 -0.2 -6.4 -0.3 -9.7 -0.5 c -1 -0.1 -2 -0.1 -2.7 -0.7 c -1.2 -0.9 -1.2 -2.7 -1.5 -4.2 c -0.2 -1.5 -1.3 -3.3 -2.8 -3 c 9.9 -3.3 19.3 10.9 29.3 7.9 c -1.4 1.7 -0.6 4.3 0.8 6 s 3.3 3 4.3 4.9 c 0.9 1.7 0.9 3.6 1.5 5.4 c 1.3 4.3 5.1 7.2 8.8 9.9 c 1.8 -4.2 2.1 -8.9 3.3 -13.3 c 1.2 -4.4 3.7 -8.9 8 -10.5 c 6.7 -2.5 13.5 2.9 18.5 7.9 C 353.9 242.7 354.1 239.1 354 236.1 z M 281.4 214.9 l 0.6 -0.6 c -2.3 -0.4 -2.6 -3.4 -3.4 -5.6 c -1.2 -3.5 -4.8 -6.5 -3.9 -10.1 c 0.5 -2.1 2.6 -3.7 4.7 -3.6 c 0.9 0 1.8 0.4 2.3 1.1 c 0.9 1.2 0.5 2.9 0.5 4.4 c 0 2.6 1.2 5.1 1.7 7.6 C 284.4 210.7 283.8 213.9 281.4 214.9 z"
      style="stroke: none; stroke-width: 1; stroke-dasharray: none; stroke-linecap: butt; stroke-linejoin: miter; stroke-miterlimit: 10; fill: #FFFFFF; fill-rule: nonzero; opacity: 1;"
      transform=" matrix(1 0 0 1 0 0) " stroke-linecap="round"/>
    <path
      d="M 265.9 314.4 c -3 -0.6 -5.5 -3.3 -5.8 -6.3 c -0.3 -3.1 1.6 -6.2 4.4 -7.4 c 1.6 -0.6 3.4 -0.7 4.7 -1.8 c 0.7 -0.6 1.2 -1.3 1.9 -1.9 c 0.7 -0.6 1.8 -0.9 2.5 -0.3 c 0.3 0.2 0.5 0.6 0.7 1 c 0.5 1.7 -0.1 3.5 -1.1 5 s -2.3 2.7 -3.2 4.3 c -1.5 2.5 -2 5.5 -1.3 8.4 c 0.2 1 0.6 2 0.4 3 c -0.4 1.5 -2.2 2.3 -3.7 1.8 c -1.4 -0.5 -2.3 -2.2 -2.1 -3.7 L 265.9 314.4 z"
      style="stroke: none; stroke-width: 1; stroke-dasharray: none; stroke-linecap: butt; stroke-linejoin: miter; stroke-miterlimit: 10; fill: #FFFFFF; fill-rule: nonzero; opacity: 1;"
      transform=" matrix(1 0 0 1 0 0) " stroke-linecap="round"/>
    <path
      d="M 357.9 263.2 c -0.5 1 -1.5 1.5 -2.3 2.2 c -1.9 1.8 -1.9 4.7 -2 7.3 c 0 0.9 -0.3 2 -1.1 2.1 c -0.3 0.1 -0.7 -0.1 -1 -0.2 c -4.8 -2 -8.9 -5.7 -11.5 -10.2 c -0.7 -1.3 -1.4 -2.8 -1 -4.3 c 0.3 -1.5 2.1 -2.6 3.4 -1.9 c 1.5 0.8 2 3.7 3.7 3.3 c 1.2 -0.3 1.2 -1.9 0.8 -3.1 c -0.4 -1.1 -1 -2.4 -0.4 -3.4 c 0.8 -1.3 3 -0.7 3.8 0.6 c 0.8 1.3 0.9 2.9 1.4 4.4 c 2.4 -2.9 4.2 -6.4 5.2 -10 c 0.4 3.5 0.8 7 1.2 10.5 C 358.2 261.4 358.3 262.4 357.9 263.2 z"
      style="stroke: none; stroke-width: 1; stroke-dasharray: none; stroke-linecap: butt; stroke-linejoin: miter; stroke-miterlimit: 10; fill: #FFFFFF; fill-rule: nonzero; opacity: 1;"
      transform=" matrix(1 0 0 1 0 0) " stroke-linecap="round"/>
    <path
      d="M 253.9 436 c -100.4 0 -182 -81.6 -182 -182 s 81.6 -182 182 -182 s 182 81.6 182 182 S 354.3 436 253.9 436 z M 253.9 86.7 c -92.2 0 -167.3 75 -167.3 167.3 c 0 92.2 75 167.3 167.3 167.3 s 167.3 -75 167.3 -167.3 C 421.2 161.8 346.1 86.7 253.9 86.7 z"
      style="stroke: none; stroke-width: 1; stroke-dasharray: none; stroke-linecap: butt; stroke-linejoin: miter; stroke-miterlimit: 10; fill: #E6E9EE; fill-rule: nonzero; opacity: 1;"
      transform=" matrix(1 0 0 1 0 0) " stroke-linecap="round"/>
    <path
      d="M 426.4 213.1 L 426.4 213.1 c -22.6 0 -40.9 18.3 -40.9 40.9 l 0 0 c 0 22.6 18.3 40.9 40.9 40.9 l 0 0 c 22.6 0 40.9 -18.3 40.9 -40.9 l 0 0 C 467.3 231.4 448.9 213.1 426.4 213.1 z"
      style="stroke: none; stroke-width: 1; stroke-dasharray: none; stroke-linecap: butt; stroke-linejoin: miter; stroke-miterlimit: 10; fill: #FFFFFF; fill-rule: nonzero; opacity: 1;"
      transform=" matrix(1 0 0 1 0 0) " stroke-linecap="round"/>
    <path
      d="M 426.4 228.6 L 426.4 228.6 c -14 0 -25.4 11.4 -25.4 25.4 l 0 0 c 0 14 11.4 25.4 25.4 25.4 l 0 0 c 14 0 25.4 -11.4 25.4 -25.4 l 0 0 C 451.8 240 440.4 228.6 426.4 228.6 z"
      style="stroke: none; stroke-width: 1; stroke-dasharray: none; stroke-linecap: butt; stroke-linejoin: miter; stroke-miterlimit: 10; fill: #FF7058; fill-rule: nonzero; opacity: 1;"
      transform=" matrix(1 0 0 1 0 0) " stroke-linecap="round"/>
    <path
      d="M 79.3 213.1 L 79.3 213.1 c -22.6 0 -40.9 18.3 -40.9 40.9 l 0 0 c 0 22.6 18.3 40.9 40.9 40.9 l 0 0 c 22.6 0 40.9 -18.3 40.9 -40.9 l 0 0 C 120.2 231.4 101.9 213.1 79.3 213.1 z"
      style="stroke: none; stroke-width: 1; stroke-dasharray: none; stroke-linecap: butt; stroke-linejoin: miter; stroke-miterlimit: 10; fill: #FFFFFF; fill-rule: nonzero; opacity: 1;"
      transform=" matrix(1 0 0 1 0 0) " stroke-linecap="round"/>
    <path
      d="M 79.3 228.6 L 79.3 228.6 c -14 0 -25.4 11.4 -25.4 25.4 l 0 0 c 0 14 11.4 25.4 25.4 25.4 l 0 0 c 14 0 25.4 -11.4 25.4 -25.4 l 0 0 C 104.7 240 93.3 228.6 79.3 228.6 z"
      style="stroke: none; stroke-width: 1; stroke-dasharray: none; stroke-linecap: butt; stroke-linejoin: miter; stroke-miterlimit: 10; fill: #FF7058; fill-rule: nonzero; opacity: 1;"
      transform=" matrix(1 0 0 1 0 0) " stroke-linecap="round"/>
    <path
      d="M 293.7 427.5 L 293.7 427.5 c 0 -22.6 -18.3 -40.9 -40.9 -40.9 l 0 0 c -22.6 0 -40.9 18.3 -40.9 40.9 l 0 0 c 0 22.6 18.3 40.9 40.9 40.9 l 0 0 C 275.4 468.4 293.7 450.1 293.7 427.5 z"
      style="stroke: none; stroke-width: 1; stroke-dasharray: none; stroke-linecap: butt; stroke-linejoin: miter; stroke-miterlimit: 10; fill: #FFFFFF; fill-rule: nonzero; opacity: 1;"
      transform=" matrix(1 0 0 1 0 0) " stroke-linecap="round"/>
    <path
      d="M 278.2 427.5 L 278.2 427.5 c 0 -14 -11.4 -25.4 -25.4 -25.4 l 0 0 c -14 0 -25.4 11.4 -25.4 25.4 l 0 0 c 0 14 11.4 25.4 25.4 25.4 l 0 0 C 266.8 452.9 278.2 441.6 278.2 427.5 z"
      style="stroke: none; stroke-width: 1; stroke-dasharray: none; stroke-linecap: butt; stroke-linejoin: miter; stroke-miterlimit: 10; fill: #FF7058; fill-rule: nonzero; opacity: 1;"
      transform=" matrix(1 0 0 1 0 0) " stroke-linecap="round"/>
    <path
      d="M 293.7 80.5 L 293.7 80.5 c 0 -22.6 -18.3 -40.9 -40.9 -40.9 l 0 0 c -22.6 0 -40.9 18.3 -40.9 40.9 l 0 0 c 0 22.6 18.3 40.9 40.9 40.9 l 0 0 C 275.4 121.3 293.7 103 293.7 80.5 z"
      style="stroke: none; stroke-width: 1; stroke-dasharray: none; stroke-linecap: butt; stroke-linejoin: miter; stroke-miterlimit: 10; fill: #FFFFFF; fill-rule: nonzero; opacity: 1;"
      transform=" matrix(1 0 0 1 0 0) " stroke-linecap="round"/>
    <path
      d="M 278.2 80.5 L 278.2 80.5 c 0 -14 -11.4 -25.4 -25.4 -25.4 l 0 0 c -14 0 -25.4 11.4 -25.4 25.4 l 0 0 c 0 14 11.4 25.4 25.4 25.4 l 0 0 C 266.8 105.8 278.2 94.5 278.2 80.5 z"
      style="stroke: none; stroke-width: 1; stroke-dasharray: none; stroke-linecap: butt; stroke-linejoin: miter; stroke-miterlimit: 10; fill: #FF7058; fill-rule: nonzero; opacity: 1;"
      transform=" matrix(1 0 0 1 0 0) " stroke-linecap="round"/>
</g>
  <g
    style="stroke: none; stroke-width: 1; stroke-dasharray: none; stroke-linecap: butt; stroke-linejoin: miter; stroke-miterlimit: 10; fill: none; fill-rule: nonzero; opacity: 1;"
    transform="translate(79 78.74) scale(0.13 0.13)">
  <ellipse cx="198.60000000000002" cy="369.6" rx="60.8" ry="58.8"
           style="stroke: none; stroke-width: 1; stroke-dasharray: none; stroke-linecap: butt; stroke-linejoin: miter; stroke-miterlimit: 10; fill: #FAC4BC; fill-rule: nonzero; opacity: 1;"
           transform=" matrix(1 0 0 1 0 0) "/>
    <path
      d="M 198.6 440.4 c -40 0 -72.8 -31.6 -72.8 -70.8 c 0 -38.8 32.4 -70.8 72.8 -70.8 c 40 0 72.8 31.6 72.8 70.8 C 271.4 408.4 238.6 440.4 198.6 440.4 z M 198.6 322.8 c -26.8 0 -48.8 20.8 -48.8 46.8 s 22 46.8 48.8 46.8 s 48.8 -20.8 48.8 -46.8 S 225.4 322.8 198.6 322.8 z"
      style="stroke: none; stroke-width: 1; stroke-dasharray: none; stroke-linecap: butt; stroke-linejoin: miter; stroke-miterlimit: 10; fill: #454B54; fill-rule: nonzero; opacity: 1;"
      transform=" matrix(1 0 0 1 0 0) " stroke-linecap="round"/>
    <ellipse cx="149.8" cy="256.4" rx="24.4" ry="24.4"
             style="stroke: none; stroke-width: 1; stroke-dasharray: none; stroke-linecap: butt; stroke-linejoin: miter; stroke-miterlimit: 10; fill: #F8E390; fill-rule: nonzero; opacity: 1;"
             transform=" matrix(1 0 0 1 0 0) "/>
    <ellipse cx="182.6" cy="82" rx="16.4" ry="16.4"
             style="stroke: none; stroke-width: 1; stroke-dasharray: none; stroke-linecap: butt; stroke-linejoin: miter; stroke-miterlimit: 10; fill: #F8E390; fill-rule: nonzero; opacity: 1;"
             transform=" matrix(1 0 0 1 0 0) "/>
    <ellipse cx="245.8" cy="140.8" rx="12" ry="12"
             style="stroke: none; stroke-width: 1; stroke-dasharray: none; stroke-linecap: butt; stroke-linejoin: miter; stroke-miterlimit: 10; fill: #F8E390; fill-rule: nonzero; opacity: 1;"
             transform=" matrix(1 0 0 1 0 0) "/>
    <rect x="190.6" y="343.2" rx="0" ry="0" width="16" height="52"
          style="stroke: none; stroke-width: 1; stroke-dasharray: none; stroke-linecap: butt; stroke-linejoin: miter; stroke-miterlimit: 10; fill: #FFFFFF; fill-rule: nonzero; opacity: 1;"
          transform=" matrix(1 0 0 1 0 0) "/>
    <rect x="173" y="361.2" rx="0" ry="0" width="51.6" height="16"
          style="stroke: none; stroke-width: 1; stroke-dasharray: none; stroke-linecap: butt; stroke-linejoin: miter; stroke-miterlimit: 10; fill: #FFFFFF; fill-rule: nonzero; opacity: 1;"
          transform=" matrix(1 0 0 1 0 0) "/>
    <path
      d="M 251.4 280.8 L 251.4 280.8 v -33.6 c 0 -71.6 58 -130 130 -130 l 0 0 v 33.6 C 381.4 222.8 323.4 280.8 251.4 280.8 z"
      style="stroke: none; stroke-width: 1; stroke-dasharray: none; stroke-linecap: butt; stroke-linejoin: miter; stroke-miterlimit: 10; fill: #AEDDD1; fill-rule: nonzero; opacity: 1;"
      transform=" matrix(1 0 0 1 0 0) " stroke-linecap="round"/>
    <path
      d="M 251.4 280.8 L 251.4 280.8 c 0 0 44 -21.2 74.8 -60 c 34 -43.2 55.2 -103.6 55.2 -103.6 l 0 0 V 150 C 381.4 222.4 323.4 280.8 251.4 280.8 z"
      style="stroke: none; stroke-width: 1; stroke-dasharray: none; stroke-linecap: butt; stroke-linejoin: miter; stroke-miterlimit: 10; fill: #FFFFFF; fill-rule: nonzero; opacity: 1;"
      transform=" matrix(1 0 0 1 0 0) " stroke-linecap="round"/>
    <path
      d="M 251.4 292.8 L 251.4 292.8 c -6.8 0 -12 -5.2 -12 -12 v -33.6 c 0 -78.4 63.6 -142 142 -142 c 6.8 0 12 5.2 12 12 v 33.6 C 393.4 229.2 329.8 292.8 251.4 292.8 z M 369.4 129.6 c -59.6 6 -106 56.4 -106 117.2 V 268 c 59.6 -6 106 -56.4 106 -117.2 V 129.6 z"
      style="stroke: none; stroke-width: 1; stroke-dasharray: none; stroke-linecap: butt; stroke-linejoin: miter; stroke-miterlimit: 10; fill: #454B54; fill-rule: nonzero; opacity: 1;"
      transform=" matrix(1 0 0 1 0 0) " stroke-linecap="round"/>
    <path d="M 255.4 77.6 L 255.4 77.6 V 64 c 0 -28.8 23.2 -52 52 -52 l 0 0 v 13.6 C 307.4 54.4 284.2 77.6 255.4 77.6 z"
          style="stroke: none; stroke-width: 1; stroke-dasharray: none; stroke-linecap: butt; stroke-linejoin: miter; stroke-miterlimit: 10; fill: #AEDDD1; fill-rule: nonzero; opacity: 1;"
          transform=" matrix(1 0 0 1 0 0) " stroke-linecap="round"/>
    <path
      d="M 255.4 89.6 L 255.4 89.6 c -6.8 0 -12 -5.2 -12 -12 V 64 c 0 -35.2 28.8 -64 64 -64 c 6.8 0 12 5.2 12 12 v 13.6 C 319.4 61.2 290.6 89.6 255.4 89.6 z M 295.4 26 c -16 5.2 -28 20 -28 37.6 C 283.4 58.8 295.4 44 295.4 26 z"
      style="stroke: none; stroke-width: 1; stroke-dasharray: none; stroke-linecap: butt; stroke-linejoin: miter; stroke-miterlimit: 10; fill: #454B54; fill-rule: nonzero; opacity: 1;"
      transform=" matrix(1 0 0 1 0 0) " stroke-linecap="round"/>
    <path
      d="M 149.8 191.6 L 149.8 191.6 V 168 c 0 -50.4 -40.8 -90.8 -90.8 -90.8 l 0 0 v 23.6 C 59 150.8 99.8 191.6 149.8 191.6 z"
      style="stroke: none; stroke-width: 1; stroke-dasharray: none; stroke-linecap: butt; stroke-linejoin: miter; stroke-miterlimit: 10; fill: #AEDDD1; fill-rule: nonzero; opacity: 1;"
      transform=" matrix(1 0 0 1 0 0) " stroke-linecap="round"/>
    <path
      d="M 149.8 191.6 L 149.8 191.6 v -22.8 c 0 -50.8 -40.8 -91.6 -90.8 -91.6 l 0 0 C 59 77.2 123.8 132.8 149.8 191.6 z"
      style="stroke: none; stroke-width: 1; stroke-dasharray: none; stroke-linecap: butt; stroke-linejoin: miter; stroke-miterlimit: 10; fill: #FFFFFF; fill-rule: nonzero; opacity: 1;"
      transform=" matrix(1 0 0 1 0 0) " stroke-linecap="round"/>
    <path
      d="M 149.8 203.6 L 149.8 203.6 C 93 203.6 47 157.6 47 100.8 V 77.2 c 0 -6.8 5.2 -12 12 -12 c 56.8 0 102.8 46 102.8 102.8 v 23.6 C 161.8 198.4 156.6 203.6 149.8 203.6 z M 71 90 v 10.8 c 0 39.6 29.2 72.4 66.8 78 V 168 C 137.8 128.4 109 96 71 90 z"
      style="stroke: none; stroke-width: 1; stroke-dasharray: none; stroke-linecap: butt; stroke-linejoin: miter; stroke-miterlimit: 10; fill: #454B54; fill-rule: nonzero; opacity: 1;"
      transform=" matrix(1 0 0 1 0 0) " stroke-linecap="round"/>
    <path
      d="M 198.6 318.8 c -6.8 0 -12 -5.2 -12 -12 V 181.2 c 0 -33.2 12.8 -64 36 -87.6 c 4.8 -4.8 12.4 -4.8 16.8 0 c 4.8 4.8 4.8 12.4 0 16.8 c -18.8 18.8 -29.2 44 -29.2 70.4 v 126 C 210.6 313.6 205.4 318.8 198.6 318.8 z"
      style="stroke: none; stroke-width: 1; stroke-dasharray: none; stroke-linecap: butt; stroke-linejoin: miter; stroke-miterlimit: 10; fill: #454B54; fill-rule: nonzero; opacity: 1;"
      transform=" matrix(1 0 0 1 0 0) " stroke-linecap="round"/>
</g>
  <g transform="translate(303.95 107.25)">
   <text font-family="ADAMCG PRO" font-size="40" font-weight="normal"
         style="stroke: none; stroke-width: 1; stroke-dasharray: none; stroke-linecap: butt; stroke-linejoin: miter; stroke-miterlimit: 10; fill: #000000; fill-rule: nonzero; opacity: 1;"><tspan x="-90.45" y="8.98" style="stroke: none; stroke-width: 0; stroke-dasharray: none; stroke-linecap: butt; stroke-linejoin: miter; stroke-miterlimit: 4; fill: #000000; fill-rule: ; opacity: 1;">K</tspan>
     <tspan x="-64.34" y="8.98"
            style="stroke: none; stroke-width: 0; stroke-dasharray: none; stroke-linecap: butt; stroke-linejoin: miter; stroke-miterlimit: 4; fill: #000000; fill-rule: ; opacity: 1;">A</tspan>
     <tspan x="-36.54" y="8.98"
            style="stroke: none; stroke-width: 0; stroke-dasharray: none; stroke-linecap: butt; stroke-linejoin: miter; stroke-miterlimit: 4; fill: #000000; fill-rule: ; opacity: 1;">W</tspan>
     <tspan x="8.28" y="8.98"
            style="stroke: none; stroke-width: 0; stroke-dasharray: none; stroke-linecap: butt; stroke-linejoin: miter; stroke-miterlimit: 4; fill: #000000; fill-rule: ; opacity: 1;">A</tspan>
     <tspan x="36.07" y="8.98"
            style="stroke: none; stroke-width: 0; stroke-dasharray: none; stroke-linecap: butt; stroke-linejoin: miter; stroke-miterlimit: 4; fill: #000000; fill-rule: ; opacity: 1;">C</tspan>
     <tspan x="63.14" y="8.98"
            style="stroke: none; stroke-width: 0; stroke-dasharray: none; stroke-linecap: butt; stroke-linejoin: miter; stroke-miterlimit: 4; fill: #000000; fill-rule: ; opacity: 1;">H</tspan></text>
 </g>
  <g transform="translate(322.17 141.46) scale(0.52 0.53)">
   <text font-family="Amerika Sans" font-size="40" font-weight="normal"
         style="stroke: none; stroke-width: 1; stroke-dasharray: none; stroke-linecap: butt; stroke-linejoin: miter; stroke-miterlimit: 10; fill: #000000; fill-rule: nonzero; opacity: 1;"><tspan x="-209.44" y="8.98" style="stroke: none; stroke-width: 0; stroke-dasharray: none; stroke-linecap: butt; stroke-linejoin: miter; stroke-miterlimit: 4; fill: #000000; fill-rule: ; opacity: 1;">S</tspan>
     <tspan x="-186" y="8.98"
            style="stroke: none; stroke-width: 0; stroke-dasharray: none; stroke-linecap: butt; stroke-linejoin: miter; stroke-miterlimit: 4; fill: #000000; fill-rule: ; opacity: 1;">T</tspan>
     <tspan x="-160.12" y="8.98"
            style="stroke: none; stroke-width: 0; stroke-dasharray: none; stroke-linecap: butt; stroke-linejoin: miter; stroke-miterlimit: 4; fill: #000000; fill-rule: ; opacity: 1;">R</tspan>
     <tspan x="-134.12" y="8.98"
            style="stroke: none; stroke-width: 0; stroke-dasharray: none; stroke-linecap: butt; stroke-linejoin: miter; stroke-miterlimit: 4; fill: #000000; fill-rule: ; opacity: 1;">O</tspan>
     <tspan x="-107.56" y="8.98"
            style="stroke: none; stroke-width: 0; stroke-dasharray: none; stroke-linecap: butt; stroke-linejoin: miter; stroke-miterlimit: 4; fill: #000000; fill-rule: ; opacity: 1;">N</tspan>
     <tspan x="-81" y="8.98"
            style="stroke: none; stroke-width: 0; stroke-dasharray: none; stroke-linecap: butt; stroke-linejoin: miter; stroke-miterlimit: 4; fill: #000000; fill-rule: ; opacity: 1;">G</tspan>
     <tspan x="-53.12" y="8.98"
            style="stroke: none; stroke-width: 0; stroke-dasharray: none; stroke-linecap: butt; stroke-linejoin: miter; stroke-miterlimit: 4; fill: #000000; fill-rule: ; opacity: 1;">E</tspan>
     <tspan x="-30.28" y="8.98"
            style="stroke: none; stroke-width: 0; stroke-dasharray: none; stroke-linecap: butt; stroke-linejoin: miter; stroke-miterlimit: 4; fill: #000000; fill-rule: ; opacity: 1;">R</tspan>
     <tspan x="-4.28" y="8.98"
            style="stroke: none; stroke-width: 0; stroke-dasharray: none; stroke-linecap: butt; stroke-linejoin: miter; stroke-miterlimit: 4; fill: #000000; fill-rule: ; opacity: 1;"> </tspan>
     <tspan x="9.72" y="8.98"
            style="stroke: none; stroke-width: 0; stroke-dasharray: none; stroke-linecap: butt; stroke-linejoin: miter; stroke-miterlimit: 4; fill: #000000; fill-rule: ; opacity: 1;">T</tspan>
     <tspan x="35.6" y="8.98"
            style="stroke: none; stroke-width: 0; stroke-dasharray: none; stroke-linecap: butt; stroke-linejoin: miter; stroke-miterlimit: 4; fill: #000000; fill-rule: ; opacity: 1;">O</tspan>
     <tspan x="62.16" y="8.98"
            style="stroke: none; stroke-width: 0; stroke-dasharray: none; stroke-linecap: butt; stroke-linejoin: miter; stroke-miterlimit: 4; fill: #000000; fill-rule: ; opacity: 1;">G</tspan>
     <tspan x="90.04" y="8.98"
            style="stroke: none; stroke-width: 0; stroke-dasharray: none; stroke-linecap: butt; stroke-linejoin: miter; stroke-miterlimit: 4; fill: #000000; fill-rule: ; opacity: 1;">E</tspan>
     <tspan x="112.88" y="8.98"
            style="stroke: none; stroke-width: 0; stroke-dasharray: none; stroke-linecap: butt; stroke-linejoin: miter; stroke-miterlimit: 4; fill: #000000; fill-rule: ; opacity: 1;">T</tspan>
     <tspan x="138.76" y="8.98"
            style="stroke: none; stroke-width: 0; stroke-dasharray: none; stroke-linecap: butt; stroke-linejoin: miter; stroke-miterlimit: 4; fill: #000000; fill-rule: ; opacity: 1;">H</tspan>
     <tspan x="160.6" y="8.98"
            style="stroke: none; stroke-width: 0; stroke-dasharray: none; stroke-linecap: butt; stroke-linejoin: miter; stroke-miterlimit: 4; fill: #000000; fill-rule: ; opacity: 1;">E</tspan>
     <tspan x="183.44" y="8.98"
            style="stroke: none; stroke-width: 0; stroke-dasharray: none; stroke-linecap: butt; stroke-linejoin: miter; stroke-miterlimit: 4; fill: #000000; fill-rule: ; opacity: 1;">R</tspan></text>
 </g>
</svg>
